<svg width="81" height="80" viewBox="0 0 81 80" fill="none" xmlns="http://www.w3.org/2000/svg">
<path d="M63.2556 52.7694V53.3854C63.2556 55.601 63.2498 57.8166 63.2621 60.0318C63.2636 60.3478 63.1693 60.4369 62.8598 60.4381C59.5336 60.4497 56.4973 59.5146 53.7807 57.5765C51.9641 56.2805 50.4972 54.6491 49.3845 52.6951C48.2995 50.79 47.6342 48.7484 47.414 46.5648C47.2377 44.8162 47.3543 43.0852 47.7621 41.3705C48.2006 39.5281 48.9425 37.827 50.0059 36.2703C51.7866 33.6644 54.1283 31.7719 57.0483 30.6067C58.7424 29.9307 60.4961 29.5816 62.313 29.5396C62.5356 29.5345 62.7593 29.561 62.981 29.5489C63.1928 29.5376 63.2594 29.6174 63.259 29.8299C63.2532 32.4144 63.2552 34.9993 63.2544 37.5838C63.2544 37.6363 63.2459 37.6885 63.2386 37.7753C60.694 37.6406 58.5345 38.4629 56.8635 40.4287C55.5925 41.9231 55.0258 43.6806 55.1078 45.6444C55.1656 47.0279 55.5918 48.2947 56.3479 49.4521C57.0972 50.5993 58.0994 51.4415 59.3114 52.0514C60.5446 52.6725 61.8568 52.8476 63.2556 52.7694Z" fill="#0C0C0D"/>
<path d="M47.3354 29.4966V28.7704C47.3354 27.0195 47.3324 25.2686 47.3366 23.5177C47.342 21.3508 48.9629 19.6326 51.1036 19.5816C52.7411 19.5427 54.3805 19.5738 56.0857 19.5738V20.0871C56.0857 21.884 56.0877 23.6812 56.0853 25.4784C56.0827 27.6986 54.6361 29.3588 52.4596 29.488C50.8849 29.5818 49.3006 29.5168 47.7204 29.5207C47.6161 29.5211 47.5118 29.5083 47.3354 29.4966Z" fill="#E54829"/>
<path d="M36.6013 43.153C36.6013 40.4268 36.5362 37.9443 36.6159 35.4664C36.748 31.3645 32.9048 27.2023 28.0354 27.9172C24.4278 28.4469 21.6665 31.4984 21.5198 35.273C21.3843 38.7483 23.9204 42.3244 27.3409 42.7973C30.3563 43.2141 33.4499 43.0549 36.6013 43.153ZM44.7552 51.2431C39.0185 51.2431 33.3521 51.5708 27.7394 51.1579C21.1074 50.6699 16.478 46.8848 14.2788 40.5292C11.1482 31.4828 16.7194 21.8675 26.0149 19.9193C34.7994 18.0785 43.5801 24.45 44.585 33.4073C44.6882 34.3249 44.7452 35.2527 44.7479 36.1759C44.7637 41.1694 44.7552 46.1625 44.7552 51.2431Z" fill="#0C0C0D"/>
<path d="M3.94231 45.9433C3.94231 46.9509 3.9169 47.9593 3.95194 48.9653C3.97311 49.5825 4.0736 50.1986 4.16177 50.8115C5.25022 58.365 8.53942 64.7358 14.4032 69.5849C22.4132 76.2086 31.699 77.6762 41.6028 75.8436C50.3728 74.2207 57.8617 69.9643 64.1444 63.6231C72.1955 55.4972 76.907 45.8032 77.0526 34.1323C77.1577 25.6907 74.506 18.233 68.5105 12.2766C60.4075 4.22619 50.4729 2.19664 39.6026 4.13551C30.0292 5.8432 22.037 10.6281 15.4486 17.7737C8.14786 25.6923 4.05551 35.0138 3.94231 45.9433ZM80.5 34.0591C80.257 45.6402 76.0161 55.6525 68.3092 64.1742C61.2018 72.0328 52.5327 77.3104 42.106 79.2255C30.9317 81.278 20.542 79.4061 11.7116 71.744C4.83786 65.7799 1.18289 58.0443 0.596509 48.9213C-0.234359 35.9925 4.33734 25.0023 12.8528 15.5951C19.3769 8.3884 27.3395 3.44784 36.7997 1.22293C46.3097 -1.01366 55.5678 -0.358292 64.1679 4.65739C72.8759 9.73573 78.0209 17.4554 79.8936 27.419C80.0792 28.4067 80.2359 29.405 80.3237 30.4056C80.428 31.6015 80.4438 32.8048 80.5 34.0591Z" fill="#0C0C0D"/>
</svg>
